<?xml version="1.0" encoding="UTF-8"?>
<svg width="381px" height="62px" viewBox="0 0 381 62" version="1.1" xmlns="http://www.w3.org/2000/svg" xmlns:xlink="http://www.w3.org/1999/xlink">
    <!-- Generator: Sketch 60 (88103) - https://sketch.com -->
    <title>Group 40</title>
    <desc>Created with Sketch.</desc>
    <defs>
        <polygon id="path-1" points="0.9332 0.828 15.1342 0.828 15.1342 15.031 0.9332 15.031"></polygon>
        <polygon id="path-3" points="0.3871 0.828 14.5881 0.828 14.5881 15.03 0.3871 15.03"></polygon>
        <polygon id="path-5" points="0 0.233 0 41 16.091 41 16.091 1.335 16.091 0.233"></polygon>
        <linearGradient x1="50.0018184%" y1="94.6784181%" x2="50.0018184%" y2="-43.4371099%" id="linearGradient-7">
            <stop stop-color="#FB5059" offset="0%"></stop>
            <stop stop-color="#FF9E1F" offset="100%"></stop>
        </linearGradient>
        <polygon id="path-8" points="0.442 0.233 0.442 41 16.534 41 16.534 1.335 16.534 0.233"></polygon>
        <linearGradient x1="49.9979077%" y1="94.544719%" x2="49.9979077%" y2="-38.4228251%" id="linearGradient-10">
            <stop stop-color="#9350D4" offset="0%"></stop>
            <stop stop-color="#23BFFB" offset="100%"></stop>
        </linearGradient>
        <polygon id="path-11" points="0.0292 0.8927 25.941 0.8927 25.941 26.7117 0.0292 26.7117"></polygon>
    </defs>
    <g id="Page-1" stroke="none" stroke-width="1" fill="none" fill-rule="evenodd">
        <g id="Group-40" transform="translate(0.000000, -1.000000)">
            <g id="Group-7" transform="translate(0.000000, 0.172400)">
                <g id="Group-3">
                    <mask id="mask-2" fill="white">
                        <use xlink:href="#path-1"></use>
                    </mask>
                    <g id="Clip-2"></g>
                    <path d="M15.1342,7.929 C15.1342,4.008 11.9552,0.827 8.0322,0.827 C4.1122,0.827 0.9332,4.008 0.9332,7.929 C0.9332,11.852 4.1122,15.031 8.0322,15.031 C11.9552,15.031 15.1342,11.852 15.1342,7.929" id="Fill-1" fill="#FF9E1F" mask="url(#mask-2)"></path>
                </g>
                <g id="Group-6" transform="translate(36.000000, 0.000000)">
                    <mask id="mask-4" fill="white">
                        <use xlink:href="#path-3"></use>
                    </mask>
                    <g id="Clip-5"></g>
                    <path d="M0.3871,7.928 C0.3871,4.008 3.5651,0.827 7.4901,0.827 C11.4101,0.827 14.5881,4.008 14.5881,7.928 C14.5881,11.85 11.4101,15.03 7.4901,15.03 C3.5651,15.03 0.3871,11.85 0.3871,7.928" id="Fill-4" fill="#24C0FB" mask="url(#mask-4)"></path>
                </g>
            </g>
            <g id="Group-10" transform="translate(0.000000, 21.172400)">
                <mask id="mask-6" fill="white">
                    <use xlink:href="#path-5"></use>
                </mask>
                <g id="Clip-9"></g>
                <polygon id="Fill-8" fill="url(#linearGradient-7)" mask="url(#mask-6)" points="0 0.233 0 41 16.091 41 16.091 1.335 16.091 0.233"></polygon>
            </g>
            <g id="Group-13" transform="translate(35.000000, 21.172400)">
                <mask id="mask-9" fill="white">
                    <use xlink:href="#path-8"></use>
                </mask>
                <g id="Clip-12"></g>
                <polygon id="Fill-11" fill="url(#linearGradient-10)" mask="url(#mask-9)" points="0.442 0.233 0.442 41 16.534 41 16.534 1.335 16.534 0.233"></polygon>
            </g>
            <g id="Group-39" transform="translate(0.000000, 14.172400)">
                <path d="M35.4418,7.2435 C34.2958,11.3215 30.1978,14.3135 25.7528,14.3135 C21.3068,14.3135 17.2388,11.3215 16.0908,7.2435 L16.0908,28.6335 C19.0778,29.8345 22.3368,30.5005 25.7528,30.5005 C39.1608,30.5005 50.1858,20.3055 51.5048,7.2435 L35.4418,7.2435 Z" id="Fill-14" fill="#24C0FB"></path>
                <path d="M0.0004,7.2435 C0.9804,16.9765 7.3574,25.1165 16.0914,28.6335 L16.0914,7.2435 L0.0004,7.2435 Z" id="Fill-16" fill="#FF9E1F"></path>
                <polygon id="Fill-18" fill="#231F20" points="103.2328 0.4964 103.2328 34.2514 97.6938 34.2514 97.6938 19.8504 82.8788 19.8504 82.8788 34.2514 77.3388 34.2514 77.3388 0.4964 82.8788 0.4964 82.8788 14.8974 97.6938 14.8974 97.6938 0.4964"></polygon>
                <path d="M111.0189,25.4163 L111.0189,9.3863 L116.1829,9.3863 L116.1829,25.1583 C116.1829,28.5143 118.5529,30.0403 121.6989,30.0403 C124.8679,30.0403 127.2139,28.5143 127.2139,25.1583 L127.2139,9.3863 L132.3779,9.3863 L132.3779,25.4163 C132.3779,31.2613 128.2229,34.7113 121.6989,34.7113 C115.1739,34.7113 111.0189,31.2613 111.0189,25.4163" id="Fill-20" fill="#231F20"></path>
                <path d="M174.5434,17.2484 L174.5434,34.2414 L169.3334,34.2414 L169.3334,18.8924 C169.3334,15.0194 167.2204,13.5174 164.6394,13.5174 C161.6814,13.5174 159.6864,15.4654 159.6864,19.0794 L159.6864,34.2414 L154.4504,34.2414 L154.4504,18.8924 C154.4504,15.0194 152.3624,13.5174 149.7574,13.5174 C146.7774,13.5174 144.8294,15.4654 144.8294,19.0794 L144.8294,34.2414 L139.5944,34.2414 L139.5944,9.3864 L144.8294,9.3864 L144.8294,12.8594 C146.3084,10.4194 148.7254,8.9174 151.8704,8.9174 C154.9204,8.9174 157.4804,10.1134 158.7704,12.8594 C160.3664,10.3944 162.9244,8.9174 166.0934,8.9174 C171.1154,8.9174 174.5434,12.2494 174.5434,17.2484" id="Fill-22" fill="#231F20"></path>
                <path d="M201.3959,21.7786 C201.3959,17.0606 197.8059,13.5406 193.2299,13.5406 C188.6749,13.5406 185.0139,17.0606 185.0139,21.7786 C185.0139,26.5186 188.6749,30.0636 193.2299,30.0636 C197.8059,30.0636 201.3959,26.5186 201.3959,21.7786 M179.8029,21.7786 C179.8029,14.4786 185.4599,8.8456 192.0799,8.8456 C195.9989,8.8456 199.0749,10.4886 201.0439,13.0006 L201.0699,9.3856 L206.2799,9.3856 L206.2799,34.2416 L201.0439,34.2416 L201.0439,30.6276 C199.0749,33.1156 196.0219,34.7346 192.0799,34.7346 C185.4599,34.7346 179.8029,29.1006 179.8029,21.7786" id="Fill-24" fill="#231F20"></path>
                <path d="M236.0726,19.1263 L236.0726,34.2413 L230.8396,34.2413 L230.8396,19.8773 C230.8396,15.0653 228.4916,13.4463 225.2746,13.4463 C221.9196,13.4463 219.3616,15.6293 219.3386,20.0423 L219.3386,34.2413 L214.1026,34.2413 L214.1026,9.3863 L219.3386,9.3863 L219.3386,12.9303 C220.9326,10.3953 223.5156,8.9173 226.8016,8.9173 C232.2226,8.9173 236.0726,12.3443 236.0726,19.1263" id="Fill-26" fill="#231F20"></path>
                <path d="M240.8256,31.472 L243.3366,27.482 C245.1906,29.078 248.1236,30.393 250.7756,30.393 C253.2636,30.393 254.9296,29.289 254.9296,27.294 C254.9296,25.065 252.4656,24.384 249.6256,23.515 C246.0816,22.412 242.0216,21.145 242.0216,16.263 C242.0216,11.358 246.2466,8.917 251.0816,8.917 C254.0626,8.917 257.0436,9.831 259.4366,11.451 L256.8556,15.136 C254.9536,13.751 252.6526,13.071 250.8226,13.071 C248.5936,13.071 247.0216,14.034 247.0216,15.77 C247.0216,17.906 249.8386,18.517 252.8426,19.432 C256.2916,20.488 260.0706,21.944 260.0706,26.895 C260.0706,31.989 256.1756,34.711 250.7526,34.711 C246.6696,34.711 243.1956,33.209 240.8256,31.472" id="Fill-28" fill="#231F20"></path>
                <path d="M263.7455,21.8021 C263.7455,14.4791 269.5655,8.9171 277.0285,8.9171 C281.4195,8.9171 285.2675,10.8881 287.6615,13.9861 L283.7425,17.1311 C282.2875,14.9481 279.8935,13.6111 277.0055,13.6111 C272.3835,13.6111 268.8135,17.0841 268.8135,21.8021 C268.8135,26.4961 272.3835,29.9931 277.0055,29.9931 C279.8935,29.9931 282.2875,28.6321 283.7425,26.4491 L287.6615,29.5941 C285.2675,32.6931 281.4195,34.6641 277.0285,34.6641 C269.5655,34.6641 263.7455,29.1011 263.7455,21.8021" id="Fill-30" fill="#231F20"></path>
                <path d="M312.1996,21.7786 C312.1996,17.0606 308.6096,13.5406 304.0336,13.5406 C299.4786,13.5406 295.8166,17.0606 295.8166,21.7786 C295.8166,26.5186 299.4786,30.0636 304.0336,30.0636 C308.6096,30.0636 312.1996,26.5186 312.1996,21.7786 M290.6066,21.7786 C290.6066,14.4786 296.2636,8.8456 302.8836,8.8456 C306.8026,8.8456 309.8776,10.4886 311.8476,13.0006 L311.8726,9.3856 L317.0826,9.3856 L317.0826,34.2416 L311.8476,34.2416 L311.8476,30.6276 C309.8776,33.1156 306.8246,34.7346 302.8836,34.7346 C296.2636,34.7346 290.6066,29.1006 290.6066,21.7786" id="Fill-32" fill="#231F20"></path>
                <path d="M346.1722,21.8255 C346.1722,17.1075 342.5332,13.5635 337.9812,13.5635 C333.4022,13.5635 329.7892,17.1075 329.7892,21.8255 C329.7892,26.5665 333.4022,30.1115 337.9812,30.1115 C342.5332,30.1115 346.1722,26.5665 346.1722,21.8255 L346.1722,21.8255 Z M324.9062,9.3865 L330.1412,9.3865 L330.1412,13.0235 C332.0652,10.5835 335.1412,8.9175 339.0822,8.9175 C345.7482,8.9175 351.3822,14.5265 351.3822,21.8255 C351.3822,29.1485 345.7722,34.7115 339.0822,34.7115 C335.2812,34.7115 332.1592,33.1845 330.1412,30.6275 L330.1412,43.1085 L324.9062,43.1085 L324.9062,9.3865 Z" id="Fill-34" fill="#231F20"></path>
                <g id="Group-38" transform="translate(355.000000, 8.000000)">
                    <mask id="mask-12" fill="white">
                        <use xlink:href="#path-11"></use>
                    </mask>
                    <g id="Clip-37"></g>
                    <path d="M5.3812,10.9857 L20.5672,10.9857 C19.8152,7.3717 16.8592,5.0477 13.1252,5.0477 C9.3242,5.0477 6.3432,7.3937 5.3812,10.9857 L5.3812,10.9857 Z M25.8952,14.5527 L5.0752,14.5527 C5.3092,19.1767 8.8782,22.3447 13.1962,22.3447 C16.0832,22.3447 18.6892,20.9617 20.2142,18.4967 L24.4622,20.3037 C22.3252,24.2697 18.2192,26.7117 13.2202,26.7117 C5.5682,26.7117 0.0292,20.9837 0.0292,13.8017 C0.0292,6.6427 5.6632,0.8927 13.1022,0.8927 C20.2142,0.8927 25.7772,6.1507 25.9412,13.5207 L25.8952,14.5527 Z" id="Fill-36" fill="#231F20" mask="url(#mask-12)"></path>
                </g>
            </g>
        </g>
    </g>
</svg>